<svg width="24" height="24" viewBox="0 0 24 24" fill="none" xmlns="http://www.w3.org/2000/svg">
<path d="M10.5035 3.55859L11.4945 2.56763C11.9141 2.14803 12.5926 2.14803 13.0077 2.56763L21.6853 11.2408C22.1049 11.6604 22.1049 12.3389 21.6853 12.754L13.0077 21.4316C12.5881 21.8512 11.9096 21.8512 11.4945 21.4316L10.5035 20.4406C10.0795 20.0166 10.0884 19.3247 10.5214 18.9096L15.9002 13.7851H3.07131C2.47763 13.7851 2 13.3075 2 12.7138V11.2854C2 10.6917 2.47763 10.2141 3.07131 10.2141H15.9002L10.5214 5.08967C10.0839 4.67453 10.075 3.98265 10.5035 3.55859Z" fill="black"/>
</svg>
