<?xml version="1.0" encoding="UTF-8" standalone="no"?>
<!DOCTYPE svg PUBLIC "-//W3C//DTD SVG 1.1//EN" "http://www.w3.org/Graphics/SVG/1.1/DTD/svg11.dtd">
<svg width="100%" height="100%" viewBox="0 0 1599 1080" version="1.1" xmlns="http://www.w3.org/2000/svg" xmlns:xlink="http://www.w3.org/1999/xlink" xml:space="preserve" xmlns:serif="http://www.serif.com/" style="fill-rule:evenodd;clip-rule:evenodd;stroke-linejoin:round;stroke-miterlimit:2;">
    <g transform="matrix(1,0,0,1,-160.859,1.93803e-14)">
        <g transform="matrix(0.769052,-0.369491,0.453946,0.944835,89.7406,161.578)">
            <ellipse cx="823.752" cy="520.832" rx="81.223" ry="66.112" style="fill:rgb(235,230,162);"/>
        </g>
        <g transform="matrix(1.22953,-0.573339,0.186762,0.400512,-499.663,501.435)">
            <path d="M1026.98,237.53C1026.85,236.673 1008.52,255.449 999.236,357.094C994.93,404.239 990.006,461.677 992.476,537.297C997.017,676.348 1017.9,842.554 1019.51,840.629C1045.05,810.061 1051.6,653.556 1052.33,624.235C1053.92,560.498 1051.74,485.759 1042.98,386.748C1041.19,366.575 1033.32,281.032 1026.98,237.53Z" style="fill:rgb(162,200,232);"/>
        </g>
        <g transform="matrix(-1.22953,0.573339,-0.186762,-0.400512,2419.66,198.565)">
            <path d="M1026.98,237.53C1026.85,236.673 1008.52,255.449 999.236,357.094C994.93,404.239 990.006,461.677 992.476,537.297C997.017,676.348 1017.9,842.554 1019.51,840.629C1045.05,810.061 1051.6,653.556 1052.33,624.235C1053.92,560.498 1051.74,485.759 1042.98,386.748C1041.19,366.575 1033.32,281.032 1026.98,237.53Z" style="fill:rgb(168,147,194);"/>
        </g>
        <g transform="matrix(-0.573339,-1.22953,0.400512,-0.186762,1111.43,1809.66)">
            <path d="M1026.98,237.53C1026.85,236.673 1008.52,255.449 999.236,357.094C994.93,404.239 990.006,461.677 992.476,537.297C997.017,676.348 1017.9,842.554 1019.51,840.629C1045.05,810.061 1051.6,653.556 1052.33,624.235C1053.92,560.498 1051.74,485.759 1042.98,386.748C1041.19,366.575 1033.32,281.032 1026.98,237.53Z" style="fill:rgb(173,209,157);"/>
        </g>
        <g transform="matrix(0.573339,1.22953,-0.400512,0.186762,808.565,-1109.66)">
            <path d="M1026.98,237.53C1026.85,236.673 1008.52,255.449 999.236,357.094C994.93,404.239 990.006,461.677 992.476,537.297C997.017,676.348 1017.9,842.554 1019.51,840.629C1045.05,810.061 1051.6,653.556 1052.33,624.235C1053.92,560.498 1051.74,485.759 1042.98,386.748C1041.19,366.575 1033.32,281.032 1026.98,237.53Z" style="fill:rgb(162,200,232);"/>
        </g>
        <g transform="matrix(-1.27482,-0.463996,0.151144,-0.415265,2099.22,1275.06)">
            <path d="M1026.98,237.53C1026.85,236.673 1008.52,255.449 999.236,357.094C994.93,404.239 990.006,461.677 992.476,537.297C997.017,676.348 1017.9,842.554 1019.51,840.629C1045.05,810.061 1051.6,653.556 1052.33,624.235C1053.92,560.498 1051.74,485.759 1042.98,386.748C1041.19,366.575 1033.32,281.032 1026.98,237.53Z" style="fill:rgb(162,200,232);"/>
        </g>
        <g transform="matrix(1.27482,0.463996,-0.151144,0.415265,-179.218,-575.057)">
            <path d="M1026.98,237.53C1026.85,236.673 1008.52,255.449 999.236,357.094C994.93,404.239 990.006,461.677 992.476,537.297C997.017,676.348 1017.9,842.554 1019.51,840.629C1045.05,810.061 1051.6,653.556 1052.33,624.235C1053.92,560.498 1051.74,485.759 1042.98,386.748C1041.19,366.575 1033.32,281.032 1026.98,237.53Z" style="fill:rgb(168,147,194);"/>
        </g>
        <g transform="matrix(-0.463996,1.27482,-0.415265,-0.151144,1885.06,-789.218)">
            <path d="M1026.98,237.53C1026.85,236.673 1008.52,255.449 999.236,357.094C994.93,404.239 990.006,461.677 992.476,537.297C997.017,676.348 1017.9,842.554 1019.51,840.629C1045.05,810.061 1051.6,653.556 1052.33,624.235C1053.92,560.498 1051.74,485.759 1042.98,386.748C1041.19,366.575 1033.32,281.032 1026.98,237.53Z" style="fill:rgb(173,209,157);"/>
        </g>
        <g transform="matrix(0.463996,-1.27482,0.415265,0.151144,34.9432,1489.22)">
            <path d="M1026.98,237.53C1026.85,236.673 1008.52,255.449 999.236,357.094C994.93,404.239 990.006,461.677 992.476,537.297C997.017,676.348 1017.9,842.554 1019.51,840.629C1045.05,810.061 1051.6,653.556 1052.33,624.235C1053.92,560.498 1051.74,485.759 1042.98,386.748C1041.19,366.575 1033.32,281.032 1026.98,237.53Z" style="fill:rgb(168,147,194);"/>
        </g>
        <g transform="matrix(0.249771,0,0,0.249771,289.461,691.855)">
            <text x="271.216px" y="520.541px" style="font-family:'Gabriela-Regular', 'Gabriela';font-size:572.756px;">Coralie Andrietti</text>
        </g>
        <g transform="matrix(0.225849,0,0,0.225849,89.7605,901.621)">
            <text x="271.216px" y="520.541px" style="font-family:'Gabriela-Regular', 'Gabriela';font-size:968.627px;">Ergothérapeute</text>
        </g>
    </g>
</svg>
