<svg width="734" height="717" viewBox="0 0 734 717" fill="none" xmlns="http://www.w3.org/2000/svg">
<path d="M396.831 411.774C431.329 395.2 445.859 353.797 429.284 319.298C412.709 284.8 371.306 270.27 336.808 286.844C302.31 303.419 287.78 344.822 304.355 379.32C320.929 413.819 362.332 428.349 396.831 411.774Z" fill="#EBE6A2"/>
<path fill-rule="evenodd" clip-rule="evenodd" d="M214.542 7.76096C214.222 7.49226 195.192 25.5216 202.76 71.5545C206.271 92.9054 210.944 118.733 228.104 147.604C259.656 200.692 316.374 255.286 317.994 253.592C343.687 226.706 322.511 160.269 317.933 148.107C307.984 121.668 291.345 92.9838 262.083 58.3511C256.115 51.2979 230.462 21.5491 214.542 7.76096Z" fill="#A2C8E8"/>
<path fill-rule="evenodd" clip-rule="evenodd" d="M519.737 692.239C520.057 692.508 539.087 674.478 531.519 628.446C528.008 607.095 523.335 581.267 506.175 552.396C474.623 499.308 417.905 444.714 416.285 446.408C390.592 473.294 411.768 539.731 416.346 551.893C426.295 578.332 442.934 607.016 472.196 641.649C478.164 648.702 503.817 678.451 519.737 692.239Z" fill="#A893C2"/>
<path fill-rule="evenodd" clip-rule="evenodd" d="M24.8971 502.596C24.6284 502.916 42.6577 521.946 88.6906 514.378C110.042 510.867 135.869 506.194 164.74 489.034C217.828 457.482 272.422 400.764 270.728 399.144C243.842 373.451 177.405 394.627 165.243 399.205C138.804 409.154 110.12 425.793 75.4872 455.055C68.434 461.023 38.6852 486.676 24.8971 502.596Z" fill="#ADD19D"/>
<path fill-rule="evenodd" clip-rule="evenodd" d="M709.38 197.404C709.648 197.084 691.619 178.054 645.586 185.622C624.235 189.133 598.408 193.806 569.537 210.966C516.449 242.518 461.855 299.236 463.549 300.856C490.435 326.549 556.872 305.373 569.034 300.795C595.473 290.846 624.157 274.207 658.79 244.945C665.843 238.977 695.592 213.324 709.38 197.404Z" fill="#A2C8E8"/>
<path fill-rule="evenodd" clip-rule="evenodd" d="M233.048 699.908C233.084 700.324 259.289 701.032 286.488 663.13C299.103 645.55 314.061 623.983 322.342 591.434C337.57 531.584 336.069 452.875 333.725 452.928C296.546 453.771 264.541 515.723 259.179 527.56C247.519 553.29 239.001 585.338 235.204 630.519C234.437 639.726 231.54 678.901 233.048 699.908Z" fill="#A2C8E8"/>
<path fill-rule="evenodd" clip-rule="evenodd" d="M501.236 0.0954759C501.2 -0.320725 474.995 -1.02873 447.796 36.8731C435.181 54.4528 420.223 76.0201 411.942 108.569C396.714 168.419 398.215 247.128 400.559 247.075C437.738 246.232 469.743 184.28 475.105 172.443C486.765 146.713 495.283 114.665 499.08 69.4844C499.847 60.2767 502.744 21.1021 501.236 0.0954759Z" fill="#A893C2"/>
<path fill-rule="evenodd" clip-rule="evenodd" d="M717.049 484.095C717.465 484.059 718.173 457.854 680.271 430.655C662.691 418.04 641.124 403.082 608.575 394.801C548.725 379.573 470.016 381.074 470.069 383.418C470.912 420.597 532.864 452.602 544.701 457.964C570.431 469.624 602.479 478.142 647.66 481.939C656.867 482.706 696.042 485.603 717.049 484.095Z" fill="#ADD19D"/>
<path fill-rule="evenodd" clip-rule="evenodd" d="M17.2367 215.907C16.8204 215.943 16.1124 242.148 54.0143 269.347C71.594 281.962 93.1613 296.92 125.71 305.201C185.56 320.429 264.269 318.928 264.217 316.584C263.373 279.405 201.421 247.4 189.584 242.038C163.854 230.378 131.806 221.86 86.6256 218.063C77.4179 217.296 38.2432 214.399 17.2367 215.907Z" fill="#A893C2"/>
</svg>
