<svg width="1599" height="1069" viewBox="0 0 1599 1069" fill="none" xmlns="http://www.w3.org/2000/svg">
<g clip-path="url(#clip0_1_3)">
<path d="M105.288 1010.47L103.538 1008.06C101.934 1006.02 98.8713 1005 94.3502 1005H2.25075L-0.155645 998L4.43839 996.687C9.68871 995.083 13.1889 993.114 14.939 990.78C16.835 988.301 17.783 983.853 17.783 977.436V891.899C17.783 883.003 16.9808 875.93 15.3766 870.679C13.9181 865.429 11.4388 860.324 7.9386 855.366L5.09468 851.428L7.9386 847.928H74.8802C87.4227 847.928 95.7357 846.396 99.8193 843.334L103.757 840.49L107.257 843.334V882.274L99.8193 884.899L98.5067 879.867C97.1941 874.617 95.6627 870.606 93.9126 867.835C92.1625 865.064 89.8291 863.168 86.9122 862.147C83.9954 860.981 79.9118 860.397 74.6615 860.397H53.4414C47.7536 860.397 43.9617 861.491 42.0657 863.679C40.3156 865.721 39.4405 870.169 39.4405 877.023V919.026H67.2235C70.5779 919.026 73.5676 918.297 76.1928 916.838C78.9638 915.38 81.7348 912.755 84.5058 908.963L86.2559 906.556L90.6312 908.963V946.371L83.1932 948.997L81.8806 943.965C80.5681 938.861 78.1617 935.506 74.6615 933.902C71.3071 932.298 65.7651 931.495 58.0354 931.495H39.4405V975.904C39.4405 982.613 40.3156 987.061 42.0657 989.249C43.9617 991.437 47.7536 992.53 53.4414 992.53H77.0679C82.3182 992.53 86.4018 992.02 89.3186 990.999C92.2355 989.832 94.5689 987.864 96.319 985.093C98.0691 982.176 99.6005 978.165 100.913 973.061L102.226 968.029L109.664 970.654V1008.06L105.288 1010.47ZM136.867 1005L134.461 998.218L139.055 997.125C142.847 996.249 145.326 994.645 146.493 992.312C147.66 989.978 148.243 986.113 148.243 980.717V919.245C148.243 916.036 146.784 914.432 143.868 914.432H134.242L132.273 908.744C136.503 904.952 141.315 901.817 146.712 899.337C152.254 896.858 157.066 895.618 161.15 895.618C163.192 895.618 164.869 896.275 166.181 897.587C167.494 898.9 168.15 900.577 168.15 902.619V926.026H169.463C171.942 916.255 175.734 908.379 180.839 902.4C186.089 896.42 191.777 893.431 197.902 893.431C203.882 893.431 208.913 895.4 212.997 899.337C217.08 903.275 219.122 908.744 219.122 915.745C219.122 921.287 217.08 925.953 212.997 929.745C209.059 933.537 203.955 935.433 197.683 935.433C194.912 935.433 193.527 934.631 193.527 933.027C193.527 932.298 194.037 931.277 195.058 929.964C196.079 928.652 197.1 926.974 198.121 924.933C199.142 922.891 199.652 920.557 199.652 917.932C199.652 915.307 198.923 913.265 197.465 911.807C196.152 910.203 194.475 909.4 192.433 909.4C189.37 909.4 185.943 911.369 182.151 915.307C178.359 919.099 175.078 925.516 172.307 934.558C169.536 943.455 168.15 955.559 168.15 970.873C168.15 977.436 168.661 982.759 169.682 986.843C170.703 990.78 172.526 994.572 175.151 998.218L177.776 1001.72L175.151 1005H136.867ZM280.928 1065.82C272.469 1065.82 265.469 1064.28 259.927 1061.22C254.385 1058.16 250.228 1054.22 247.457 1049.41C244.832 1044.6 243.519 1039.64 243.519 1034.53C243.519 1030.01 244.54 1025.71 246.582 1021.63C248.77 1017.69 251.905 1014.41 255.989 1011.78C260.218 1009.3 265.323 1008.06 271.302 1008.06C272.907 1008.06 274.001 1008.28 274.584 1008.72C275.167 1009.3 275.459 1009.89 275.459 1010.47C275.459 1011.34 274.584 1012.58 272.834 1014.19C271.084 1015.94 269.261 1018.34 267.365 1021.41C265.615 1024.47 264.74 1028.7 264.74 1034.1C264.74 1039.64 266.417 1044.38 269.771 1048.32C273.125 1052.4 277.792 1054.44 283.772 1054.44C290.043 1054.44 295.075 1052.62 298.867 1048.97C302.804 1045.47 305.648 1040.59 307.398 1034.31C309.149 1028.19 310.024 1021.19 310.024 1013.31V978.53C303.752 987.426 297.408 993.551 290.991 996.906C284.72 1000.11 278.157 1001.72 271.302 1001.72C264.448 1001.72 258.031 1000.04 252.051 996.687C246.072 993.187 241.259 987.936 237.613 980.936C233.967 973.936 232.144 965.258 232.144 954.903C232.144 942.215 234.404 931.277 238.925 922.089C243.592 912.901 250.155 905.827 258.614 900.869C267.219 895.91 277.282 893.431 288.804 893.431C295.658 893.431 302.804 894.233 310.242 895.837C317.68 897.295 325.118 898.316 332.556 898.9L334.963 901.744L332.337 905.681C331.462 906.994 330.733 908.307 330.15 909.619C329.712 910.786 329.494 912.317 329.494 914.213V1009.81C329.494 1027.9 325.045 1041.75 316.149 1051.38C307.398 1061 295.658 1065.82 280.928 1065.82ZM280.053 984.874C285.595 984.874 290.918 983.269 296.023 980.061C301.273 976.852 305.94 971.821 310.024 964.966V912.244C303.315 907.723 296.169 905.463 288.585 905.463C277.938 905.463 269.698 909.473 263.864 917.495C258.031 925.37 255.114 936.454 255.114 950.747C255.114 959.06 256.281 965.768 258.614 970.873C260.948 975.832 264.01 979.405 267.802 981.592C271.594 983.78 275.678 984.874 280.053 984.874ZM413.84 1008.06C402.902 1008.06 393.423 1005.73 385.401 1001.06C377.526 996.395 371.4 989.759 367.025 981.155C362.65 972.55 360.462 962.414 360.462 950.747C360.462 938.933 362.65 928.797 367.025 920.339C371.4 911.734 377.526 905.098 385.401 900.431C393.423 895.764 402.902 893.431 413.84 893.431C424.779 893.431 434.185 895.764 442.061 900.431C450.082 905.098 456.281 911.734 460.656 920.339C465.031 928.797 467.219 938.933 467.219 950.747C467.219 962.414 465.031 972.55 460.656 981.155C456.281 989.759 450.082 996.395 442.061 1001.06C434.185 1005.73 424.779 1008.06 413.84 1008.06ZM413.184 996.249C422.226 996.249 429.664 992.166 435.498 983.999C441.332 975.686 444.249 964.82 444.249 951.403C444.249 947.028 443.738 942.142 442.717 936.746C441.842 931.35 440.238 926.245 437.904 921.432C435.717 916.62 432.727 912.682 428.935 909.619C425.143 906.411 420.33 904.806 414.497 904.806C408.371 904.806 402.902 906.775 398.09 910.713C393.423 914.505 389.777 919.901 387.151 926.901C384.526 933.756 383.214 941.777 383.214 950.965C383.214 964.675 385.912 975.686 391.308 983.999C396.704 992.166 403.996 996.249 413.184 996.249ZM517.562 1008.06C511.582 1008.06 506.915 1006.24 503.561 1002.59C500.352 998.802 498.748 993.624 498.748 987.061V910.057H479.497C479.497 906.119 479.789 903.567 480.372 902.4C480.955 901.233 482.414 900.358 484.747 899.775C490.435 898.316 494.81 896.202 497.873 893.431C501.082 890.514 503.415 887.232 504.873 883.586C506.478 879.94 507.644 876.075 508.374 871.992C508.811 869.658 509.54 868.2 510.561 867.617C511.728 867.033 514.426 866.741 518.656 866.741V896.275H547.095C547.095 902.837 545.418 907.432 542.063 910.057H518.656V980.498C518.656 985.02 519.312 988.228 520.624 990.124C521.937 992.02 524.052 992.968 526.969 992.968C531.344 992.968 536.302 990.635 541.844 985.968L546.001 991.655C542.209 996.614 537.688 1000.62 532.438 1003.69C527.187 1006.6 522.229 1008.06 517.562 1008.06ZM662.563 1008.5C656.583 1008.5 652.281 1006.68 649.656 1003.03C647.03 999.385 645.718 993.478 645.718 985.311V933.246C645.718 925.808 644.332 920.193 641.561 916.401C638.79 912.463 633.905 910.494 626.904 910.494C620.633 910.494 615.091 912.974 610.278 917.932C605.611 922.891 601.892 929.891 599.121 938.933C596.496 947.83 595.183 958.185 595.183 969.998C595.183 976.852 595.694 982.322 596.715 986.405C597.736 990.489 599.559 994.426 602.184 998.218L604.809 1001.72L602.184 1005H563.9L561.494 998.218L566.088 997.125C569.88 996.249 572.359 994.645 573.526 992.312C574.693 989.978 575.276 986.113 575.276 980.717V857.553C575.276 854.345 573.818 852.741 570.901 852.741H561.275L559.306 847.053C563.536 843.261 568.348 840.125 573.745 837.646C579.287 835.167 584.099 833.927 588.183 833.927C590.225 833.927 591.902 834.583 593.215 835.896C594.527 837.208 595.183 838.886 595.183 840.927V926.026C597.663 919.609 601.017 913.994 605.247 909.182C609.622 904.223 614.435 900.358 619.685 897.587C625.081 894.816 630.55 893.431 636.092 893.431C647.03 893.431 654.614 896.639 658.844 903.056C663.219 909.473 665.407 919.536 665.407 933.246V986.186C665.407 991.145 667.594 993.624 671.969 993.624C675.615 993.624 679.262 992.093 682.908 989.03L687.064 994.718C683.272 998.948 679.189 1002.3 674.813 1004.78C670.438 1007.26 666.355 1008.5 662.563 1008.5ZM751.528 1008.06C741.319 1008.06 732.422 1005.73 724.838 1001.06C717.4 996.395 711.567 989.905 707.337 981.592C703.254 973.133 701.212 963.289 701.212 952.059C701.212 940.246 703.545 929.964 708.212 921.214C712.879 912.463 719.442 905.681 727.901 900.869C736.506 895.91 746.496 893.431 757.872 893.431C766.33 893.431 773.258 894.962 778.654 898.025C784.196 901.087 788.28 905.098 790.905 910.057C793.676 914.869 795.061 920.047 795.061 925.589C795.061 931.568 793.457 937.402 790.249 943.09C787.186 948.778 782.519 953.445 776.248 957.091C770.122 960.737 762.466 962.56 753.278 962.56C751.819 962.56 749.704 962.414 746.933 962.122C744.308 961.685 741.61 961.101 738.839 960.372C736.214 959.497 733.954 958.403 732.058 957.091C730.162 955.778 729.214 954.174 729.214 952.278C729.214 951.111 729.505 950.017 730.089 948.997C730.818 947.976 731.62 947.465 732.495 947.465C733.662 947.465 735.12 947.976 736.87 948.997C738.766 949.872 741.975 950.309 746.496 950.309C752.767 950.309 757.945 949.142 762.028 946.809C766.112 944.33 769.174 941.194 771.216 937.402C773.258 933.464 774.279 929.454 774.279 925.37C774.279 919.974 772.529 915.161 769.029 910.932C765.528 906.556 760.351 904.369 753.496 904.369C744.162 904.369 736.87 908.452 731.62 916.62C726.37 924.787 723.745 936.6 723.745 952.059C723.745 964.893 726.443 975.029 731.839 982.467C737.381 989.905 745.475 993.624 756.122 993.624C762.247 993.624 768.008 992.603 773.404 990.562C778.8 988.52 783.686 985.384 788.061 981.155C788.644 980.571 789.301 980.28 790.03 980.28C791.197 980.28 792.436 981.009 793.749 982.467C795.061 983.78 795.718 985.165 795.718 986.624C795.718 987.353 795.426 988.009 794.843 988.593C783.613 1001.57 769.174 1008.06 751.528 1008.06ZM734.026 880.524L727.682 872.867L761.809 838.74C764.58 840.052 766.768 841.875 768.372 844.209C770.122 846.542 770.997 849.313 770.997 852.522C770.997 855.73 770.049 858.647 768.154 861.272C766.403 863.752 763.268 866.085 758.747 868.273L734.026 880.524ZM820.503 1005L818.097 998.218L822.691 997.125C826.482 996.249 828.962 994.645 830.129 992.312C831.295 989.978 831.879 986.113 831.879 980.717V919.245C831.879 916.036 830.42 914.432 827.503 914.432H817.878L815.909 908.744C820.138 904.952 824.951 901.817 830.347 899.337C835.889 896.858 840.702 895.618 844.786 895.618C846.827 895.618 848.505 896.275 849.817 897.587C851.13 898.9 851.786 900.577 851.786 902.619V926.026H853.099C855.578 916.255 859.37 908.379 864.474 902.4C869.725 896.42 875.413 893.431 881.538 893.431C887.517 893.431 892.549 895.4 896.633 899.337C900.716 903.275 902.758 908.744 902.758 915.745C902.758 921.287 900.716 925.953 896.633 929.745C892.695 933.537 887.59 935.433 881.319 935.433C878.548 935.433 877.163 934.631 877.163 933.027C877.163 932.298 877.673 931.277 878.694 929.964C879.715 928.652 880.736 926.974 881.757 924.933C882.778 922.891 883.288 920.557 883.288 917.932C883.288 915.307 882.559 913.265 881.1 911.807C879.788 910.203 878.111 909.4 876.069 909.4C873.006 909.4 869.579 911.369 865.787 915.307C861.995 919.099 858.714 925.516 855.943 934.558C853.172 943.455 851.786 955.559 851.786 970.873C851.786 977.436 852.297 982.759 853.317 986.843C854.338 990.78 856.161 994.572 858.787 998.218L861.412 1001.72L858.787 1005H820.503ZM951.657 1008.06C944.802 1008.06 938.385 1006.09 932.406 1002.16C926.426 998.218 921.613 992.312 917.967 984.436C914.321 976.561 912.498 966.716 912.498 954.903C912.498 942.215 914.759 931.277 919.28 922.089C923.947 912.901 930.51 905.827 938.968 900.869C947.573 895.91 957.636 893.431 969.158 893.431C976.012 893.431 983.159 894.233 990.597 895.837C998.035 897.295 1005.47 898.316 1012.91 898.9L1015.32 901.744L1012.69 905.681C1011.82 906.994 1011.09 908.307 1010.5 909.619C1010.07 910.786 1009.85 912.317 1009.85 914.213V985.749C1009.85 990.27 1012.04 992.53 1016.41 992.53C1020.06 992.53 1023.7 991.218 1027.35 988.593L1031.51 994.281C1027.71 998.51 1023.63 1001.86 1019.25 1004.34C1015.03 1006.82 1011.01 1008.06 1007.22 1008.06C1001.24 1008.06 996.941 1006.24 994.316 1002.59C991.69 998.948 990.378 993.041 990.378 984.874C984.107 993.77 977.763 999.896 971.345 1003.25C965.074 1006.46 958.511 1008.06 951.657 1008.06ZM960.407 991.218C965.949 991.218 971.273 989.614 976.377 986.405C981.627 983.197 986.294 978.165 990.378 971.31V912.244C983.669 907.723 976.523 905.463 968.939 905.463C958.293 905.463 950.052 909.473 944.219 917.495C938.385 925.37 935.468 936.454 935.468 950.747C935.468 960.664 936.635 968.612 938.968 974.592C941.302 980.426 944.365 984.655 948.157 987.28C952.094 989.905 956.178 991.218 960.407 991.218ZM1050.21 1063.19L1047.59 1059.91L1050.21 1056.41C1052.84 1052.62 1054.66 1048.68 1055.68 1044.6C1056.7 1040.51 1057.21 1035.04 1057.21 1028.19V921.651C1057.21 919.463 1056.92 917.859 1056.34 916.838C1055.76 915.672 1054.52 914.869 1052.62 914.432L1041.24 912.026V904.806C1042.85 903.348 1045.4 901.962 1048.9 900.65C1052.55 899.337 1056.41 898.243 1060.49 897.368C1064.72 896.493 1068.44 896.056 1071.65 896.056C1075.15 896.056 1076.9 899.41 1076.9 906.119V907.213C1086.38 898.025 1096.88 893.431 1108.4 893.431C1117.59 893.431 1125.69 895.691 1132.69 900.212C1139.69 904.733 1145.16 911.005 1149.09 919.026C1153.03 926.901 1155 936.017 1155 946.371C1155 958.185 1152.89 968.758 1148.66 978.092C1144.57 987.28 1138.89 994.572 1131.59 999.968C1124.45 1005.36 1116.21 1008.06 1106.87 1008.06C1098.27 1008.06 1090.98 1006.09 1085 1002.16C1083.68 1001.28 1083.03 999.968 1083.03 998.218C1083.03 996.906 1083.25 995.666 1083.68 994.499C1084.27 993.333 1085.14 992.749 1086.31 992.749C1087.48 992.749 1089.08 993.333 1091.12 994.499C1093.31 995.666 1096.88 996.249 1101.84 996.249C1107.67 996.249 1112.85 994.281 1117.37 990.343C1121.89 986.405 1125.39 981.009 1127.87 974.154C1130.5 967.3 1131.81 959.497 1131.81 950.747C1131.81 942.288 1130.5 934.85 1127.87 928.433C1125.39 922.016 1121.82 916.984 1117.15 913.338C1112.63 909.692 1107.38 907.869 1101.4 907.869C1092.51 907.869 1084.34 910.713 1076.9 916.401V1038.91C1076.9 1044.3 1077.49 1048.17 1078.65 1050.5C1079.96 1052.84 1082.44 1054.44 1086.09 1055.32L1090.68 1056.41L1088.28 1063.19H1050.21ZM1224.95 1008.06C1214.74 1008.06 1205.84 1005.73 1198.26 1001.06C1190.82 996.395 1184.98 989.905 1180.76 981.592C1176.67 973.133 1174.63 963.289 1174.63 952.059C1174.63 940.246 1176.96 929.964 1181.63 921.214C1186.3 912.463 1192.86 905.681 1201.32 900.869C1209.92 895.91 1219.91 893.431 1231.29 893.431C1239.75 893.431 1246.68 894.962 1252.07 898.025C1257.61 901.087 1261.7 905.098 1264.32 910.057C1267.09 914.869 1268.48 920.047 1268.48 925.589C1268.48 931.568 1266.88 937.402 1263.67 943.09C1260.6 948.778 1255.94 953.445 1249.67 957.091C1243.54 960.737 1235.88 962.56 1226.7 962.56C1225.24 962.56 1223.12 962.414 1220.35 962.122C1217.73 961.685 1215.03 961.101 1212.26 960.372C1209.63 959.497 1207.37 958.403 1205.48 957.091C1203.58 955.778 1202.63 954.174 1202.63 952.278C1202.63 951.111 1202.92 950.017 1203.51 948.997C1204.24 947.976 1205.04 947.465 1205.91 947.465C1207.08 947.465 1208.54 947.976 1210.29 948.997C1212.18 949.872 1215.39 950.309 1219.91 950.309C1226.19 950.309 1231.36 949.142 1235.45 946.809C1239.53 944.33 1242.59 941.194 1244.63 937.402C1246.68 933.464 1247.7 929.454 1247.7 925.37C1247.7 919.974 1245.95 915.161 1242.45 910.932C1238.95 906.556 1233.77 904.369 1226.91 904.369C1217.58 904.369 1210.29 908.452 1205.04 916.62C1199.79 924.787 1197.16 936.6 1197.16 952.059C1197.16 964.893 1199.86 975.029 1205.26 982.467C1210.8 989.905 1218.89 993.624 1229.54 993.624C1235.66 993.624 1241.43 992.603 1246.82 990.562C1252.22 988.52 1257.1 985.384 1261.48 981.155C1262.06 980.571 1262.72 980.28 1263.45 980.28C1264.61 980.28 1265.85 981.009 1267.17 982.467C1268.48 983.78 1269.14 985.165 1269.14 986.624C1269.14 987.353 1268.84 988.009 1268.26 988.593C1257.03 1001.57 1242.59 1008.06 1224.95 1008.06ZM1336.58 1008.06C1326.08 1008.06 1317.84 1004.93 1311.86 998.656C1306.03 992.239 1303.11 983.269 1303.11 971.748V917.057C1303.11 913.849 1301.65 912.244 1298.73 912.244H1289.11L1287.14 906.556C1290.93 902.765 1295.53 899.629 1300.92 897.15C1306.46 894.67 1311.49 893.431 1316.02 893.431C1318.06 893.431 1319.73 894.087 1321.05 895.4C1322.36 896.712 1323.02 898.389 1323.02 900.431V966.716C1323.02 984.509 1330.02 993.406 1344.02 993.406C1353.79 993.406 1361.37 989.176 1366.77 980.717C1372.31 972.258 1375.08 960.591 1375.08 945.715C1375.08 938.569 1374.86 932.443 1374.43 927.339C1374.13 922.234 1373.4 917.786 1372.24 913.994C1371.07 910.057 1369.18 906.411 1366.55 903.056L1363.93 899.556L1366.55 896.275L1393.24 893.431V985.749C1393.24 990.27 1395.35 992.53 1399.58 992.53C1402.94 992.53 1406.51 991.218 1410.3 988.593L1414.46 994.281C1411.11 998.364 1407.17 1001.72 1402.65 1004.34C1398.27 1006.82 1394.19 1008.06 1390.4 1008.06C1379.17 1008.06 1373.55 1001.06 1373.55 987.061C1370.34 993.478 1365.38 998.583 1358.67 1002.37C1352.11 1006.17 1344.75 1008.06 1336.58 1008.06ZM1459.27 1008.06C1453.29 1008.06 1448.62 1006.24 1445.27 1002.59C1442.06 998.802 1440.46 993.624 1440.46 987.061V910.057H1421.21C1421.21 906.119 1421.5 903.567 1422.08 902.4C1422.66 901.233 1424.12 900.358 1426.46 899.775C1432.14 898.316 1436.52 896.202 1439.58 893.431C1442.79 890.514 1445.12 887.232 1446.58 883.586C1448.19 879.94 1449.35 876.075 1450.08 871.992C1450.52 869.658 1451.25 868.2 1452.27 867.617C1453.44 867.033 1456.13 866.741 1460.36 866.741V896.275H1488.8C1488.8 902.837 1487.13 907.432 1483.77 910.057H1460.36V980.498C1460.36 985.02 1461.02 988.228 1462.33 990.124C1463.65 992.02 1465.76 992.968 1468.68 992.968C1473.05 992.968 1478.01 990.635 1483.55 985.968L1487.71 991.655C1483.92 996.614 1479.4 1000.62 1474.15 1003.69C1468.9 1006.6 1463.94 1008.06 1459.27 1008.06ZM1553.52 1008.06C1543.31 1008.06 1534.41 1005.73 1526.83 1001.06C1519.39 996.395 1513.56 989.905 1509.33 981.592C1505.24 973.133 1503.2 963.289 1503.2 952.059C1503.2 940.246 1505.54 929.964 1510.2 921.214C1514.87 912.463 1521.43 905.681 1529.89 900.869C1538.5 895.91 1548.49 893.431 1559.86 893.431C1568.32 893.431 1575.25 894.962 1580.64 898.025C1586.19 901.087 1590.27 905.098 1592.9 910.057C1595.67 914.869 1597.05 920.047 1597.05 925.589C1597.05 931.568 1595.45 937.402 1592.24 943.09C1589.18 948.778 1584.51 953.445 1578.24 957.091C1572.11 960.737 1564.46 962.56 1555.27 962.56C1553.81 962.56 1551.69 962.414 1548.92 962.122C1546.3 961.685 1543.6 961.101 1540.83 960.372C1538.2 959.497 1535.94 958.403 1534.05 957.091C1532.15 955.778 1531.2 954.174 1531.2 952.278C1531.2 951.111 1531.5 950.017 1532.08 948.997C1532.81 947.976 1533.61 947.465 1534.49 947.465C1535.65 947.465 1537.11 947.976 1538.86 948.997C1540.76 949.872 1543.97 950.309 1548.49 950.309C1554.76 950.309 1559.93 949.142 1564.02 946.809C1568.1 944.33 1571.16 941.194 1573.21 937.402C1575.25 933.464 1576.27 929.454 1576.27 925.37C1576.27 919.974 1574.52 915.161 1571.02 910.932C1567.52 906.556 1562.34 904.369 1555.49 904.369C1546.15 904.369 1538.86 908.452 1533.61 916.62C1528.36 924.787 1525.73 936.6 1525.73 952.059C1525.73 964.893 1528.43 975.029 1533.83 982.467C1539.37 989.905 1547.47 993.624 1558.11 993.624C1564.24 993.624 1570 992.603 1575.39 990.562C1580.79 988.52 1585.68 985.384 1590.05 981.155C1590.63 980.571 1591.29 980.28 1592.02 980.28C1593.19 980.28 1594.43 981.009 1595.74 982.467C1597.05 983.78 1597.71 985.165 1597.71 986.624C1597.71 987.353 1597.42 988.009 1596.83 988.593C1585.6 1001.57 1571.16 1008.06 1553.52 1008.06Z" fill="white"/>
<path d="M277.786 823.003C270.06 823.003 263.337 821.62 257.614 818.854C251.892 816.088 247.123 812.273 243.309 807.41C239.494 802.546 236.633 796.919 234.725 790.529C232.913 784.043 232.007 777.129 232.007 769.785C232.007 762.442 232.913 755.527 234.725 749.042C236.633 742.557 239.494 736.882 243.309 732.018C247.123 727.059 251.94 723.196 257.757 720.43C263.575 717.665 270.394 716.282 278.215 716.282C284.509 716.282 290.089 717.188 294.952 719C299.816 720.716 303.584 723.148 306.254 726.296C309.02 729.443 310.403 733.115 310.403 737.311C310.403 742.271 308.924 746.324 305.968 749.471C303.107 752.523 299.483 754.049 295.096 754.049C293.093 754.049 292.091 753.477 292.091 752.332C292.091 751.855 292.425 751.14 293.093 750.186C293.856 749.137 294.571 747.754 295.239 746.038C296.002 744.226 296.383 741.984 296.383 739.314C296.383 734.831 294.714 731.207 291.376 728.442C288.038 725.676 283.651 724.293 278.215 724.293C272.588 724.293 267.867 725.628 264.052 728.299C260.237 730.969 257.138 734.545 254.753 739.028C252.464 743.415 250.795 748.327 249.746 753.763C248.697 759.104 248.173 764.444 248.173 769.785C248.173 777.701 249.412 784.949 251.892 791.53C254.372 798.111 257.9 803.356 262.478 807.266C267.152 811.177 272.683 813.132 279.073 813.132C285.368 813.132 290.756 811.987 295.239 809.698C299.721 807.314 303.298 804.167 305.968 800.257C306.254 799.875 306.588 799.684 306.969 799.684C307.828 799.684 308.781 800.114 309.83 800.972C310.975 801.83 311.547 802.736 311.547 803.69C311.547 803.976 311.404 804.358 311.118 804.834C307.399 810.366 302.821 814.801 297.384 818.139C291.948 821.381 285.415 823.003 277.786 823.003ZM356.637 823.003C349.484 823.003 343.285 821.477 338.04 818.425C332.89 815.373 328.884 811.034 326.023 805.407C323.162 799.78 321.731 793.151 321.731 785.522C321.731 777.797 323.162 771.168 326.023 765.637C328.884 760.01 332.89 755.67 338.04 752.618C343.285 749.566 349.484 748.04 356.637 748.04C363.79 748.04 369.942 749.566 375.092 752.618C380.337 755.67 384.39 760.01 387.252 765.637C390.113 771.168 391.543 777.797 391.543 785.522C391.543 793.151 390.113 799.78 387.252 805.407C384.39 811.034 380.337 815.373 375.092 818.425C369.942 821.477 363.79 823.003 356.637 823.003ZM356.208 815.278C362.121 815.278 366.985 812.607 370.8 807.266C374.615 801.83 376.522 794.725 376.522 785.951C376.522 783.09 376.188 779.895 375.521 776.366C374.949 772.837 373.9 769.499 372.374 766.352C370.943 763.205 368.988 760.63 366.508 758.627C364.029 756.529 360.881 755.48 357.066 755.48C353.061 755.48 349.484 756.767 346.337 759.342C343.285 761.822 340.901 765.35 339.184 769.928C337.467 774.411 336.609 779.656 336.609 785.665C336.609 794.63 338.374 801.83 341.902 807.266C345.431 812.607 350.2 815.278 356.208 815.278ZM406.725 821L405.152 816.565L408.156 815.85C410.636 815.278 412.257 814.229 413.02 812.703C413.783 811.177 414.164 808.649 414.164 805.121V764.921C414.164 762.823 413.211 761.774 411.303 761.774H405.009L403.721 758.055C406.487 755.575 409.634 753.524 413.163 751.903C416.787 750.282 419.934 749.471 422.605 749.471C423.94 749.471 425.037 749.9 425.895 750.759C426.753 751.617 427.183 752.714 427.183 754.049V769.356H428.041C429.662 762.966 432.142 757.816 435.48 753.906C438.913 749.996 442.633 748.04 446.638 748.04C450.549 748.04 453.839 749.328 456.509 751.903C459.18 754.478 460.515 758.055 460.515 762.632C460.515 766.257 459.18 769.308 456.509 771.788C453.934 774.268 450.596 775.508 446.495 775.508C444.683 775.508 443.777 774.983 443.777 773.934C443.777 773.457 444.111 772.79 444.779 771.931C445.446 771.073 446.114 769.976 446.782 768.641C447.449 767.306 447.783 765.78 447.783 764.063C447.783 762.346 447.306 761.011 446.352 760.057C445.494 759.008 444.397 758.484 443.062 758.484C441.059 758.484 438.818 759.771 436.338 762.346C433.859 764.826 431.713 769.022 429.901 774.935C428.089 780.753 427.183 788.669 427.183 798.683C427.183 802.975 427.516 806.456 428.184 809.126C428.852 811.701 430.044 814.181 431.76 816.565L433.477 818.854L431.76 821H406.725ZM492.492 823.003C488.009 823.003 483.813 821.715 479.903 819.14C475.993 816.565 472.845 812.703 470.461 807.553C468.077 802.402 466.885 795.965 466.885 788.24C466.885 779.942 468.363 772.79 471.319 766.781C474.371 760.773 478.663 756.147 484.195 752.904C489.821 749.662 496.402 748.04 503.936 748.04C508.419 748.04 513.092 748.565 517.956 749.614C522.82 750.568 527.684 751.235 532.548 751.617L534.122 753.477L532.405 756.052C531.833 756.91 531.356 757.768 530.974 758.627C530.688 759.39 530.545 760.391 530.545 761.631V808.411C530.545 811.367 531.976 812.846 534.837 812.846C537.221 812.846 539.606 811.987 541.99 810.271L544.708 813.99C542.228 816.756 539.558 818.95 536.697 820.571C533.931 822.192 531.308 823.003 528.829 823.003C524.918 823.003 522.105 821.811 520.388 819.426C518.671 817.042 517.813 813.18 517.813 807.839C513.712 813.656 509.563 817.662 505.367 819.856C501.266 821.954 496.974 823.003 492.492 823.003ZM498.214 811.987C501.838 811.987 505.319 810.938 508.657 808.84C512.091 806.742 515.143 803.452 517.813 798.969V760.343C513.426 757.387 508.753 755.909 503.793 755.909C496.831 755.909 491.443 758.531 487.628 763.777C483.813 768.927 481.906 776.175 481.906 785.522C481.906 792.007 482.669 797.205 484.195 801.115C485.72 804.93 487.723 807.696 490.203 809.412C492.778 811.129 495.448 811.987 498.214 811.987ZM571.82 823.003C567.909 823.003 565.096 821.811 563.379 819.426C561.663 817.042 560.804 813.18 560.804 807.839V724.579C560.804 722.481 559.85 721.432 557.943 721.432H551.649L550.361 717.712C553.127 715.233 556.274 713.182 559.803 711.561C563.427 709.939 566.574 709.129 569.245 709.129C570.58 709.129 571.629 709.558 572.392 710.416C573.25 711.275 573.679 712.371 573.679 713.707V808.411C573.679 811.654 575.11 813.275 577.971 813.275C580.355 813.275 582.74 812.273 585.124 810.271L587.842 813.99C585.362 816.756 582.692 818.95 579.831 820.571C576.97 822.192 574.299 823.003 571.82 823.003ZM616.419 823.003C612.509 823.003 609.695 821.811 607.979 819.426C606.262 817.042 605.404 813.18 605.404 807.839V763.491C605.404 761.393 604.45 760.343 602.542 760.343H596.248L594.96 756.624C597.726 754.144 600.873 752.094 604.402 750.472C608.026 748.851 611.174 748.04 613.844 748.04C615.179 748.04 616.228 748.47 616.991 749.328C617.85 750.186 618.279 751.283 618.279 752.618V808.411C618.279 811.654 619.709 813.275 622.571 813.275C624.955 813.275 627.339 812.273 629.723 810.271L632.442 813.99C629.962 816.756 627.291 818.95 624.43 820.571C621.569 822.192 618.899 823.003 616.419 823.003ZM612.127 736.167C611.078 736.167 609.838 735.642 608.408 734.593C607.073 733.544 605.88 732.304 604.831 730.874C603.878 729.443 603.401 728.108 603.401 726.868C603.401 725.628 603.878 724.293 604.831 722.862C605.88 721.336 607.073 720.049 608.408 719C609.743 717.951 610.983 717.426 612.127 717.426C613.367 717.426 614.655 717.951 615.99 719C617.42 720.049 618.613 721.336 619.566 722.862C620.615 724.293 621.14 725.628 621.14 726.868C621.14 728.108 620.615 729.443 619.566 730.874C618.613 732.304 617.42 733.544 615.99 734.593C614.655 735.642 613.367 736.167 612.127 736.167ZM673.86 823.003C667.184 823.003 661.366 821.477 656.407 818.425C651.543 815.373 647.728 811.129 644.962 805.693C642.292 800.161 640.957 793.724 640.957 786.38C640.957 778.655 642.483 771.931 645.535 766.209C648.587 760.487 652.878 756.052 658.41 752.904C664.037 749.662 670.57 748.04 678.009 748.04C683.54 748.04 688.071 749.042 691.599 751.045C695.223 753.048 697.894 755.67 699.611 758.913C701.423 762.06 702.329 765.446 702.329 769.07C702.329 772.98 701.28 776.795 699.181 780.515C697.179 784.234 694.127 787.286 690.026 789.67C686.02 792.055 681.013 793.247 675.005 793.247C674.051 793.247 672.668 793.151 670.856 792.961C669.139 792.675 667.375 792.293 665.563 791.816C663.846 791.244 662.368 790.529 661.128 789.67C659.888 788.812 659.268 787.763 659.268 786.523C659.268 785.76 659.459 785.045 659.84 784.377C660.317 783.71 660.842 783.376 661.414 783.376C662.177 783.376 663.131 783.71 664.275 784.377C665.515 784.949 667.613 785.236 670.57 785.236C674.671 785.236 678.056 784.473 680.727 782.947C683.397 781.325 685.4 779.275 686.735 776.795C688.071 774.22 688.738 771.597 688.738 768.927C688.738 765.398 687.594 762.251 685.305 759.485C683.016 756.624 679.63 755.193 675.148 755.193C669.044 755.193 664.275 757.864 660.842 763.205C657.408 768.545 655.692 776.271 655.692 786.38C655.692 794.773 657.456 801.401 660.985 806.265C664.609 811.129 669.902 813.561 676.864 813.561C680.87 813.561 684.637 812.893 688.166 811.558C691.695 810.223 694.89 808.172 697.751 805.407C698.132 805.025 698.561 804.834 699.038 804.834C699.801 804.834 700.612 805.311 701.47 806.265C702.329 807.123 702.758 808.029 702.758 808.983C702.758 809.46 702.567 809.889 702.186 810.271C694.842 818.759 685.4 823.003 673.86 823.003ZM749.064 821L747.347 816.136L750.638 815.278C753.213 814.61 755.263 813.799 756.789 812.846C758.315 811.892 759.602 810.604 760.652 808.983C761.796 807.266 762.845 804.93 763.799 801.973L786.259 737.311C786.736 735.785 787.117 734.498 787.403 733.449C787.689 732.304 787.833 731.255 787.833 730.301C787.833 728.489 787.308 727.154 786.259 726.296C785.21 725.342 783.589 724.579 781.395 724.007L778.105 723.148L779.821 718.284H807.431L836.186 801.258C837.331 804.405 838.475 806.98 839.619 808.983C840.859 810.986 842.242 812.703 843.768 814.133C845.294 815.564 847.058 817.09 849.061 818.711L847.202 821H815.014L813.297 816.136L816.587 815.278C818.781 814.705 820.402 813.99 821.451 813.132C822.5 812.178 823.025 810.795 823.025 808.983C823.025 808.029 822.882 807.028 822.596 805.979C822.309 804.834 821.928 803.499 821.451 801.973L814.584 781.945H781.538L778.105 792.388C777.056 795.631 776.245 798.445 775.673 800.829C775.1 803.213 774.814 805.407 774.814 807.41C774.814 810.652 775.482 813.561 776.817 816.136L778.105 818.711L775.387 821H749.064ZM784.542 773.076H811.58L797.847 733.019L784.542 773.076ZM923.888 823.003C919.978 823.003 917.165 821.811 915.448 819.426C913.731 817.042 912.873 813.18 912.873 807.839V773.791C912.873 764.063 908.772 759.199 900.57 759.199C896.469 759.199 892.845 760.82 889.698 764.063C886.646 767.306 884.214 771.883 882.402 777.797C880.685 783.614 879.827 790.386 879.827 798.111C879.827 802.593 880.16 806.17 880.828 808.84C881.496 811.51 882.688 814.086 884.404 816.565L886.121 818.854L884.404 821H859.369L857.796 816.565L860.8 815.85C863.28 815.278 864.901 814.229 865.664 812.703C866.427 811.177 866.808 808.649 866.808 805.121V764.921C866.808 762.823 865.855 761.774 863.947 761.774H857.653L856.365 758.055C859.131 755.575 862.278 753.524 865.807 751.903C869.431 750.282 872.578 749.471 875.249 749.471C876.584 749.471 877.681 749.9 878.539 750.759C879.397 751.617 879.827 752.714 879.827 754.049V769.356C881.448 765.16 883.641 761.488 886.407 758.341C889.268 755.098 892.416 752.571 895.849 750.759C899.378 748.947 902.954 748.04 906.578 748.04C913.254 748.04 918.118 750.091 921.17 754.192C924.222 758.293 925.748 764.826 925.748 773.791V808.411C925.748 811.654 927.179 813.275 930.04 813.275C932.233 813.275 934.618 812.273 937.193 810.271L939.911 813.99C937.431 816.756 934.761 818.95 931.9 820.571C929.038 822.192 926.368 823.003 923.888 823.003ZM974.753 823.003C970.271 823.003 966.074 821.715 962.164 819.14C958.254 816.565 955.107 812.703 952.722 807.553C950.338 802.402 949.146 795.965 949.146 788.24C949.146 779.942 950.624 772.79 953.581 766.781C956.633 760.773 960.924 756.147 966.456 752.904C972.083 749.662 978.663 748.04 986.198 748.04C991.157 748.04 995.687 748.66 999.788 749.9V724.579C999.788 722.481 998.835 721.432 996.927 721.432H990.633L989.345 717.712C992.111 715.233 995.258 713.182 998.787 711.561C1002.41 709.939 1005.56 709.129 1008.23 709.129C1009.56 709.129 1010.66 709.558 1011.52 710.416C1012.38 711.275 1012.81 712.371 1012.81 713.707V808.411C1012.81 811.367 1014.24 812.846 1017.1 812.846C1019.48 812.846 1021.87 811.987 1024.25 810.271L1026.97 813.99C1024.49 816.756 1021.82 818.95 1018.96 820.571C1016.19 822.192 1013.57 823.003 1011.09 823.003C1007.18 823.003 1004.37 821.811 1002.65 819.426C1000.93 817.042 1000.07 813.18 1000.07 807.839C995.973 813.656 991.825 817.662 987.628 819.856C983.527 821.954 979.236 823.003 974.753 823.003ZM980.476 811.987C984.1 811.987 987.581 810.938 990.919 808.84C994.352 806.742 997.404 803.452 1000.07 798.969V760.343C995.687 757.387 991.014 755.909 986.055 755.909C979.093 755.909 973.704 758.531 969.889 763.777C966.074 768.927 964.167 776.175 964.167 785.522C964.167 792.007 964.93 797.205 966.456 801.115C967.982 804.93 969.985 807.696 972.464 809.412C975.039 811.129 977.71 811.987 980.476 811.987ZM1037.77 821L1036.2 816.565L1039.2 815.85C1041.68 815.278 1043.3 814.229 1044.07 812.703C1044.83 811.177 1045.21 808.649 1045.21 805.121V764.921C1045.21 762.823 1044.26 761.774 1042.35 761.774H1036.06L1034.77 758.055C1037.53 755.575 1040.68 753.524 1044.21 751.903C1047.83 750.282 1050.98 749.471 1053.65 749.471C1054.99 749.471 1056.08 749.9 1056.94 750.759C1057.8 751.617 1058.23 752.714 1058.23 754.049V769.356H1059.09C1060.71 762.966 1063.19 757.816 1066.53 753.906C1069.96 749.996 1073.68 748.04 1077.69 748.04C1081.6 748.04 1084.89 749.328 1087.56 751.903C1090.23 754.478 1091.56 758.055 1091.56 762.632C1091.56 766.257 1090.23 769.308 1087.56 771.788C1084.98 774.268 1081.64 775.508 1077.54 775.508C1075.73 775.508 1074.82 774.983 1074.82 773.934C1074.82 773.457 1075.16 772.79 1075.83 771.931C1076.49 771.073 1077.16 769.976 1077.83 768.641C1078.5 767.306 1078.83 765.78 1078.83 764.063C1078.83 762.346 1078.35 761.011 1077.4 760.057C1076.54 759.008 1075.44 758.484 1074.11 758.484C1072.11 758.484 1069.87 759.771 1067.39 762.346C1064.91 764.826 1062.76 769.022 1060.95 774.935C1059.14 780.753 1058.23 788.669 1058.23 798.683C1058.23 802.975 1058.56 806.456 1059.23 809.126C1059.9 811.701 1061.09 814.181 1062.81 816.565L1064.52 818.854L1062.81 821H1037.77ZM1117.96 823.003C1114.05 823.003 1111.24 821.811 1109.52 819.426C1107.8 817.042 1106.94 813.18 1106.94 807.839V763.491C1106.94 761.393 1105.99 760.343 1104.08 760.343H1097.79L1096.5 756.624C1099.27 754.144 1102.41 752.094 1105.94 750.472C1109.57 748.851 1112.71 748.04 1115.38 748.04C1116.72 748.04 1117.77 748.47 1118.53 749.328C1119.39 750.186 1119.82 751.283 1119.82 752.618V808.411C1119.82 811.654 1121.25 813.275 1124.11 813.275C1126.5 813.275 1128.88 812.273 1131.26 810.271L1133.98 813.99C1131.5 816.756 1128.83 818.95 1125.97 820.571C1123.11 822.192 1120.44 823.003 1117.96 823.003ZM1113.67 736.167C1112.62 736.167 1111.38 735.642 1109.95 734.593C1108.61 733.544 1107.42 732.304 1106.37 730.874C1105.42 729.443 1104.94 728.108 1104.94 726.868C1104.94 725.628 1105.42 724.293 1106.37 722.862C1107.42 721.336 1108.61 720.049 1109.95 719C1111.28 717.951 1112.52 717.426 1113.67 717.426C1114.91 717.426 1116.2 717.951 1117.53 719C1118.96 720.049 1120.15 721.336 1121.11 722.862C1122.16 724.293 1122.68 725.628 1122.68 726.868C1122.68 728.108 1122.16 729.443 1121.11 730.874C1120.15 732.304 1118.96 733.544 1117.53 734.593C1116.2 735.642 1114.91 736.167 1113.67 736.167ZM1175.4 823.003C1168.72 823.003 1162.91 821.477 1157.95 818.425C1153.08 815.373 1149.27 811.129 1146.5 805.693C1143.83 800.161 1142.5 793.724 1142.5 786.38C1142.5 778.655 1144.02 771.931 1147.08 766.209C1150.13 760.487 1154.42 756.052 1159.95 752.904C1165.58 749.662 1172.11 748.04 1179.55 748.04C1185.08 748.04 1189.61 749.042 1193.14 751.045C1196.76 753.048 1199.43 755.67 1201.15 758.913C1202.96 762.06 1203.87 765.446 1203.87 769.07C1203.87 772.98 1202.82 776.795 1200.72 780.515C1198.72 784.234 1195.67 787.286 1191.57 789.67C1187.56 792.055 1182.55 793.247 1176.55 793.247C1175.59 793.247 1174.21 793.151 1172.4 792.961C1170.68 792.675 1168.92 792.293 1167.1 791.816C1165.39 791.244 1163.91 790.529 1162.67 789.67C1161.43 788.812 1160.81 787.763 1160.81 786.523C1160.81 785.76 1161 785.045 1161.38 784.377C1161.86 783.71 1162.38 783.376 1162.95 783.376C1163.72 783.376 1164.67 783.71 1165.82 784.377C1167.06 784.949 1169.15 785.236 1172.11 785.236C1176.21 785.236 1179.6 784.473 1182.27 782.947C1184.94 781.325 1186.94 779.275 1188.28 776.795C1189.61 774.22 1190.28 771.597 1190.28 768.927C1190.28 765.398 1189.13 762.251 1186.85 759.485C1184.56 756.624 1181.17 755.193 1176.69 755.193C1170.58 755.193 1165.82 757.864 1162.38 763.205C1158.95 768.545 1157.23 776.271 1157.23 786.38C1157.23 794.773 1159 801.401 1162.53 806.265C1166.15 811.129 1171.44 813.561 1178.4 813.561C1182.41 813.561 1186.18 812.893 1189.71 811.558C1193.24 810.223 1196.43 808.172 1199.29 805.407C1199.67 805.025 1200.1 804.834 1200.58 804.834C1201.34 804.834 1202.15 805.311 1203.01 806.265C1203.87 807.123 1204.3 808.029 1204.3 808.983C1204.3 809.46 1204.11 809.889 1203.73 810.271C1196.38 818.759 1186.94 823.003 1175.4 823.003ZM1238.25 823.003C1234.34 823.003 1231.28 821.811 1229.09 819.426C1226.99 816.947 1225.94 813.561 1225.94 809.269V758.913H1213.35C1213.35 756.338 1213.54 754.669 1213.93 753.906C1214.31 753.143 1215.26 752.571 1216.79 752.189C1220.51 751.235 1223.37 749.853 1225.37 748.04C1227.47 746.133 1228.99 743.987 1229.95 741.603C1231 739.219 1231.76 736.691 1232.24 734.021C1232.52 732.495 1233 731.541 1233.67 731.16C1234.43 730.778 1236.2 730.587 1238.96 730.587V749.9H1257.56C1257.56 754.192 1256.46 757.196 1254.27 758.913H1238.96V804.978C1238.96 807.934 1239.39 810.032 1240.25 811.272C1241.11 812.512 1242.49 813.132 1244.4 813.132C1247.26 813.132 1250.5 811.606 1254.13 808.554L1256.84 812.273C1254.36 815.516 1251.41 818.139 1247.97 820.142C1244.54 822.049 1241.3 823.003 1238.25 823.003ZM1287 823.003C1283.09 823.003 1280.04 821.811 1277.85 819.426C1275.75 816.947 1274.7 813.561 1274.7 809.269V758.913H1262.11C1262.11 756.338 1262.3 754.669 1262.68 753.906C1263.06 753.143 1264.02 752.571 1265.54 752.189C1269.26 751.235 1272.12 749.853 1274.13 748.04C1276.23 746.133 1277.75 743.987 1278.71 741.603C1279.75 739.219 1280.52 736.691 1280.99 734.021C1281.28 732.495 1281.76 731.541 1282.42 731.16C1283.19 730.778 1284.95 730.587 1287.72 730.587V749.9H1306.32C1306.32 754.192 1305.22 757.196 1303.03 758.913H1287.72V804.978C1287.72 807.934 1288.15 810.032 1289.01 811.272C1289.86 812.512 1291.25 813.132 1293.15 813.132C1296.02 813.132 1299.26 811.606 1302.88 808.554L1305.6 812.273C1303.12 815.516 1300.16 818.139 1296.73 820.142C1293.3 822.049 1290.05 823.003 1287 823.003ZM1335.76 823.003C1331.85 823.003 1329.04 821.811 1327.32 819.426C1325.6 817.042 1324.74 813.18 1324.74 807.839V763.491C1324.74 761.393 1323.79 760.343 1321.88 760.343H1315.59L1314.3 756.624C1317.07 754.144 1320.21 752.094 1323.74 750.472C1327.37 748.851 1330.51 748.04 1333.18 748.04C1334.52 748.04 1335.57 748.47 1336.33 749.328C1337.19 750.186 1337.62 751.283 1337.62 752.618V808.411C1337.62 811.654 1339.05 813.275 1341.91 813.275C1344.3 813.275 1346.68 812.273 1349.06 810.271L1351.78 813.99C1349.3 816.756 1346.63 818.95 1343.77 820.571C1340.91 822.192 1338.24 823.003 1335.76 823.003ZM1331.47 736.167C1330.42 736.167 1329.18 735.642 1327.75 734.593C1326.41 733.544 1325.22 732.304 1324.17 730.874C1323.22 729.443 1322.74 728.108 1322.74 726.868C1322.74 725.628 1323.22 724.293 1324.17 722.862C1325.22 721.336 1326.41 720.049 1327.75 719C1329.08 717.951 1330.32 717.426 1331.47 717.426C1332.71 717.426 1334 717.951 1335.33 719C1336.76 720.049 1337.95 721.336 1338.91 722.862C1339.96 724.293 1340.48 725.628 1340.48 726.868C1340.48 728.108 1339.96 729.443 1338.91 730.874C1337.95 732.304 1336.76 733.544 1335.33 734.593C1334 735.642 1332.71 736.167 1331.47 736.167Z" fill="white"/>
<path d="M828.831 411.774C863.329 395.2 877.859 353.797 861.284 319.298C844.709 284.8 803.306 270.27 768.808 286.844C734.31 303.419 719.78 344.822 736.355 379.32C752.929 413.819 794.332 428.349 828.831 411.774Z" fill="#EBE6A2"/>
<path fill-rule="evenodd" clip-rule="evenodd" d="M646.542 7.76096C646.222 7.49226 627.192 25.5216 634.76 71.5545C638.271 92.9054 642.944 118.733 660.104 147.604C691.656 200.692 748.374 255.286 749.994 253.592C775.687 226.706 754.511 160.269 749.933 148.107C739.984 121.668 723.345 92.9838 694.083 58.3511C688.115 51.2979 662.462 21.5491 646.542 7.76096Z" fill="#A2C8E8"/>
<path fill-rule="evenodd" clip-rule="evenodd" d="M951.737 692.239C952.057 692.508 971.087 674.478 963.519 628.446C960.008 607.095 955.335 581.267 938.175 552.396C906.623 499.308 849.905 444.714 848.285 446.408C822.592 473.294 843.768 539.731 848.346 551.893C858.295 578.332 874.934 607.016 904.196 641.649C910.164 648.702 935.817 678.451 951.737 692.239Z" fill="#A893C2"/>
<path fill-rule="evenodd" clip-rule="evenodd" d="M456.897 502.596C456.628 502.916 474.658 521.946 520.691 514.378C542.041 510.867 567.869 506.194 596.74 489.034C649.828 457.482 704.422 400.764 702.728 399.144C675.842 373.451 609.405 394.627 597.243 399.205C570.804 409.154 542.12 425.793 507.487 455.055C500.434 461.023 470.685 486.676 456.897 502.596Z" fill="#ADD19D"/>
<path fill-rule="evenodd" clip-rule="evenodd" d="M1141.38 197.404C1141.65 197.084 1123.62 178.054 1077.59 185.622C1056.24 189.133 1030.41 193.806 1001.54 210.966C948.449 242.518 893.855 299.236 895.549 300.856C922.435 326.549 988.872 305.373 1001.03 300.795C1027.47 290.846 1056.16 274.207 1090.79 244.945C1097.84 238.977 1127.59 213.324 1141.38 197.404Z" fill="#A2C8E8"/>
<path fill-rule="evenodd" clip-rule="evenodd" d="M665.048 699.908C665.084 700.324 691.289 701.032 718.488 663.13C731.103 645.55 746.061 623.983 754.342 591.434C769.57 531.584 768.069 452.875 765.725 452.928C728.546 453.771 696.542 515.723 691.179 527.56C679.519 553.29 671.002 585.338 667.204 630.519C666.437 639.726 663.54 678.901 665.048 699.908Z" fill="#A2C8E8"/>
<path fill-rule="evenodd" clip-rule="evenodd" d="M933.236 0.0954759C933.2 -0.320725 906.995 -1.02873 879.796 36.8731C867.181 54.4528 852.223 76.0201 843.942 108.569C828.714 168.419 830.215 247.128 832.559 247.075C869.738 246.232 901.743 184.28 907.105 172.443C918.765 146.713 927.283 114.665 931.08 69.4844C931.847 60.2767 934.744 21.1021 933.236 0.0954759Z" fill="#A893C2"/>
<path fill-rule="evenodd" clip-rule="evenodd" d="M1149.05 484.095C1149.46 484.059 1150.17 457.854 1112.27 430.655C1094.69 418.04 1073.12 403.082 1040.58 394.801C980.726 379.573 902.016 381.074 902.069 383.418C902.912 420.597 964.864 452.602 976.701 457.964C1002.43 469.624 1034.48 478.142 1079.66 481.939C1088.87 482.706 1128.04 485.603 1149.05 484.095Z" fill="#ADD19D"/>
<path fill-rule="evenodd" clip-rule="evenodd" d="M449.237 215.907C448.821 215.943 448.113 242.148 486.014 269.347C503.594 281.962 525.161 296.92 557.71 305.201C617.56 320.429 696.269 318.928 696.217 316.584C695.373 279.405 633.421 247.4 621.584 242.038C595.854 230.378 563.806 221.86 518.626 218.063C509.418 217.296 470.243 214.399 449.237 215.907Z" fill="#A893C2"/>
</g>
<defs>
<clipPath id="clip0_1_3">
<rect width="1599" height="1069" fill="white"/>
</clipPath>
</defs>
</svg>
